# xmcd
#
# Track frame offsets: 
#        150
#        10230
#        30547
#        45731
#        64669
#        81007
#        95583
#        111662
#        123107
#        142868
#        158190
#        179086
#
# Disc length: 2546 seconds
#
# Revision: 0
# Processed by: cddbd v1.5.2PL0 Copyright (c) Steve Scherf et al.
# Submitted via: ExactAudioCopy v0.95b4
#
DISCID=9c09f00c
DTITLE=Gypsy Carns - The Blues Preacher
DYEAR=2003
DGENRE=Blues
TTITLE0=John the Revelator
TTITLE1=Baby Please Don't Go
TTITLE2=Prayin' Blues
TTITLE3=Searchin'
TTITLE4=Stock Market Blues
TTITLE5=It's a Dirty Job
TTITLE6=Feel Good!
TTITLE7=Jezebel
TTITLE8=Holy Son
TTITLE9=Preachin' Blues
TTITLE10=Highway 61 Revisited
TTITLE11=National Anthem
EXTD=
EXTT0=
EXTT1=
EXTT2=
EXTT3=
EXTT4=
EXTT5=
EXTT6=
EXTT7=
EXTT8=
EXTT9=
EXTT10=
EXTT11=
PLAYORDER=
